<svg xmlns="http://www.w3.org/2000/svg" width="256" height="256" viewBox="0 0 256 256"><rect width="256" height="256" fill="#1e3a8a" rx="40"/><rect width="80" height="80" x="40" y="40" fill="#fff" rx="16"/><rect width="80" height="80" x="136" y="40" fill="#fff" rx="16"/><rect width="80" height="80" x="40" y="136" fill="#fff" rx="16"/><rect width="80" height="80" x="136" y="136" fill="#fff" rx="16"/><rect width="40" height="28" x="60" y="60" fill="#1e3a8a" rx="4"/><rect width="20" height="6" x="70" y="92" fill="#1e3a8a" rx="2"/><path fill="none" stroke="#1e3a8a" stroke-linecap="round" stroke-width="6" d="M176 70q-10 10 0 20t0 20"/><rect width="16" height="10" x="168" y="60" fill="#1e3a8a" rx="2"/><rect width="16" height="10" x="184" y="100" fill="#1e3a8a" rx="2"/><rect width="16" height="32" x="72" y="150" fill="#1e3a8a" rx="8"/><rect width="8" height="14" x="76" y="182" fill="#1e3a8a" rx="3"/><rect width="32" height="6" x="64" y="196" fill="#1e3a8a" rx="3"/><path fill="none" stroke="#22c55e" stroke-linecap="round" stroke-linejoin="round" stroke-width="10" d="m156 176 16 16 30-30"/></svg>