<svg xmlns="http://www.w3.org/2000/svg" version="1.1" xmlns:xlink="http://www.w3.org/1999/xlink" viewBox="0 0 200 200"><rect width="200" height="200" fill="url('#gradient')"></rect><defs><linearGradient id="gradient" gradientTransform="rotate(101 0.5 0.5)"><stop offset="0%" stop-color="#cf9393"></stop><stop offset="100%" stop-color="#7e8dc2"></stop></linearGradient></defs><g><g fill="#394a40" transform="matrix(4.790643274853801,0,0,4.790643274853801,14.866828414989499,134.060849190316)" stroke="#70545b" stroke-width="0.5"><path d="M8.87 0L6.36-5.02L4.50-5.02L4.50 0L1.07 0L1.07-14.22L6.67-14.22Q9.20-14.22 10.63-13.10Q12.05-11.97 12.05-9.92L12.05-9.92Q12.05-8.44 11.45-7.46Q10.85-6.48 9.57-5.88L9.57-5.88L12.54-0.15L12.54 0L8.87 0ZM4.50-11.57L4.50-7.67L6.67-7.67Q7.65-7.67 8.14-8.18Q8.63-8.69 8.63-9.61Q8.63-10.53 8.13-11.05Q7.64-11.57 6.67-11.57L6.67-11.57L4.50-11.57ZM17.55-14.22L17.55-2.64L23.52-2.64L23.52 0L14.12 0L14.12-14.22L17.55-14.22ZM33.92-8.30L33.92-5.66L28.39-5.66L28.39 0L24.96 0L24.96-14.22L34.47-14.22L34.47-11.57L28.39-11.57L28.39-8.30L33.92-8.30Z"></path></g></g></svg>